<?xml version="1.0"?><svg xmlns="http://www.w3.org/2000/svg" width="264" height="264"><rect x="0" y="0" width="100%" height="100%" fill="rgb(253, 203, 110)" /><circle cx="22" cy="22" r="18.333333333333" fill="none" stroke="#ddd" style="opacity:0.089333333333333;stroke-width:7.3333333333333px;" /><circle cx="22" cy="22" r="9.1666666666667" fill="#ddd" fill-opacity="0.10666666666667" /><circle cx="66" cy="22" r="18.333333333333" fill="none" stroke="#ddd" style="opacity:0.10666666666667;stroke-width:7.3333333333333px;" /><circle cx="66" cy="22" r="9.1666666666667" fill="#222" fill-opacity="0.063333333333333" /><circle cx="110" cy="22" r="18.333333333333" fill="none" stroke="#222" style="opacity:0.13266666666667;stroke-width:7.3333333333333px;" /><circle cx="110" cy="22" r="9.1666666666667" fill="#ddd" fill-opacity="0.02" /><circle cx="154" cy="22" r="18.333333333333" fill="none" stroke="#222" style="opacity:0.063333333333333;stroke-width:7.3333333333333px;" /><circle cx="154" cy="22" r="9.1666666666667" fill="#222" fill-opacity="0.15" /><circle cx="198" cy="22" r="18.333333333333" fill="none" stroke="#222" style="opacity:0.13266666666667;stroke-width:7.3333333333333px;" /><circle cx="198" cy="22" r="9.1666666666667" fill="#ddd" fill-opacity="0.10666666666667" /><circle cx="242" cy="22" r="18.333333333333" fill="none" stroke="#222" style="opacity:0.028666666666667;stroke-width:7.3333333333333px;" /><circle cx="242" cy="22" r="9.1666666666667" fill="#222" fill-opacity="0.15" /><circle cx="22" cy="66" r="18.333333333333" fill="none" stroke="#222" style="opacity:0.046;stroke-width:7.3333333333333px;" /><circle cx="22" cy="66" r="9.1666666666667" fill="#ddd" fill-opacity="0.089333333333333" /><circle cx="66" cy="66" r="18.333333333333" fill="none" stroke="#ddd" style="opacity:0.14133333333333;stroke-width:7.3333333333333px;" /><circle cx="66" cy="66" r="9.1666666666667" fill="#ddd" fill-opacity="0.054666666666667" /><circle cx="110" cy="66" r="18.333333333333" fill="none" stroke="#222" style="opacity:0.046;stroke-width:7.3333333333333px;" /><circle cx="110" cy="66" r="9.1666666666667" fill="#222" fill-opacity="0.098" /><circle cx="154" cy="66" r="18.333333333333" fill="none" stroke="#222" style="opacity:0.15;stroke-width:7.3333333333333px;" /><circle cx="154" cy="66" r="9.1666666666667" fill="#ddd" fill-opacity="0.054666666666667" /><circle cx="198" cy="66" r="18.333333333333" fill="none" stroke="#222" style="opacity:0.080666666666667;stroke-width:7.3333333333333px;" /><circle cx="198" cy="66" r="9.1666666666667" fill="#ddd" fill-opacity="0.14133333333333" /><circle cx="242" cy="66" r="18.333333333333" fill="none" stroke="#222" style="opacity:0.13266666666667;stroke-width:7.3333333333333px;" /><circle cx="242" cy="66" r="9.1666666666667" fill="#ddd" fill-opacity="0.124" /><circle cx="22" cy="110" r="18.333333333333" fill="none" stroke="#ddd" style="opacity:0.14133333333333;stroke-width:7.3333333333333px;" /><circle cx="22" cy="110" r="9.1666666666667" fill="#ddd" fill-opacity="0.089333333333333" /><circle cx="66" cy="110" r="18.333333333333" fill="none" stroke="#222" style="opacity:0.080666666666667;stroke-width:7.3333333333333px;" /><circle cx="66" cy="110" r="9.1666666666667" fill="#ddd" fill-opacity="0.054666666666667" /><circle cx="110" cy="110" r="18.333333333333" fill="none" stroke="#222" style="opacity:0.063333333333333;stroke-width:7.3333333333333px;" /><circle cx="110" cy="110" r="9.1666666666667" fill="#222" fill-opacity="0.046" /><circle cx="154" cy="110" r="18.333333333333" fill="none" stroke="#ddd" style="opacity:0.054666666666667;stroke-width:7.3333333333333px;" /><circle cx="154" cy="110" r="9.1666666666667" fill="#222" fill-opacity="0.046" /><circle cx="198" cy="110" r="18.333333333333" fill="none" stroke="#222" style="opacity:0.046;stroke-width:7.3333333333333px;" /><circle cx="198" cy="110" r="9.1666666666667" fill="#ddd" fill-opacity="0.054666666666667" /><circle cx="242" cy="110" r="18.333333333333" fill="none" stroke="#ddd" style="opacity:0.037333333333333;stroke-width:7.3333333333333px;" /><circle cx="242" cy="110" r="9.1666666666667" fill="#ddd" fill-opacity="0.02" /><circle cx="22" cy="154" r="18.333333333333" fill="none" stroke="#ddd" style="opacity:0.124;stroke-width:7.3333333333333px;" /><circle cx="22" cy="154" r="9.1666666666667" fill="#ddd" fill-opacity="0.124" /><circle cx="66" cy="154" r="18.333333333333" fill="none" stroke="#ddd" style="opacity:0.054666666666667;stroke-width:7.3333333333333px;" /><circle cx="66" cy="154" r="9.1666666666667" fill="#ddd" fill-opacity="0.10666666666667" /><circle cx="110" cy="154" r="18.333333333333" fill="none" stroke="#ddd" style="opacity:0.10666666666667;stroke-width:7.3333333333333px;" /><circle cx="110" cy="154" r="9.1666666666667" fill="#ddd" fill-opacity="0.054666666666667" /><circle cx="154" cy="154" r="18.333333333333" fill="none" stroke="#ddd" style="opacity:0.124;stroke-width:7.3333333333333px;" /><circle cx="154" cy="154" r="9.1666666666667" fill="#ddd" fill-opacity="0.124" /><circle cx="198" cy="154" r="18.333333333333" fill="none" stroke="#ddd" style="opacity:0.02;stroke-width:7.3333333333333px;" /><circle cx="198" cy="154" r="9.1666666666667" fill="#ddd" fill-opacity="0.037333333333333" /><circle cx="242" cy="154" r="18.333333333333" fill="none" stroke="#ddd" style="opacity:0.054666666666667;stroke-width:7.3333333333333px;" /><circle cx="242" cy="154" r="9.1666666666667" fill="#222" fill-opacity="0.046" /><circle cx="22" cy="198" r="18.333333333333" fill="none" stroke="#222" style="opacity:0.046;stroke-width:7.3333333333333px;" /><circle cx="22" cy="198" r="9.1666666666667" fill="#ddd" fill-opacity="0.054666666666667" /><circle cx="66" cy="198" r="18.333333333333" fill="none" stroke="#222" style="opacity:0.046;stroke-width:7.3333333333333px;" /><circle cx="66" cy="198" r="9.1666666666667" fill="#222" fill-opacity="0.063333333333333" /><circle cx="110" cy="198" r="18.333333333333" fill="none" stroke="#ddd" style="opacity:0.054666666666667;stroke-width:7.3333333333333px;" /><circle cx="110" cy="198" r="9.1666666666667" fill="#222" fill-opacity="0.080666666666667" /><circle cx="154" cy="198" r="18.333333333333" fill="none" stroke="#ddd" style="opacity:0.089333333333333;stroke-width:7.3333333333333px;" /><circle cx="154" cy="198" r="9.1666666666667" fill="#ddd" fill-opacity="0.14133333333333" /><circle cx="198" cy="198" r="18.333333333333" fill="none" stroke="#ddd" style="opacity:0.124;stroke-width:7.3333333333333px;" /><circle cx="198" cy="198" r="9.1666666666667" fill="#222" fill-opacity="0.13266666666667" /><circle cx="242" cy="198" r="18.333333333333" fill="none" stroke="#ddd" style="opacity:0.14133333333333;stroke-width:7.3333333333333px;" /><circle cx="242" cy="198" r="9.1666666666667" fill="#222" fill-opacity="0.080666666666667" /><circle cx="22" cy="242" r="18.333333333333" fill="none" stroke="#ddd" style="opacity:0.054666666666667;stroke-width:7.3333333333333px;" /><circle cx="22" cy="242" r="9.1666666666667" fill="#222" fill-opacity="0.15" /><circle cx="66" cy="242" r="18.333333333333" fill="none" stroke="#222" style="opacity:0.098;stroke-width:7.3333333333333px;" /><circle cx="66" cy="242" r="9.1666666666667" fill="#222" fill-opacity="0.046" /><circle cx="110" cy="242" r="18.333333333333" fill="none" stroke="#ddd" style="opacity:0.054666666666667;stroke-width:7.3333333333333px;" /><circle cx="110" cy="242" r="9.1666666666667" fill="#ddd" fill-opacity="0.14133333333333" /><circle cx="154" cy="242" r="18.333333333333" fill="none" stroke="#ddd" style="opacity:0.089333333333333;stroke-width:7.3333333333333px;" /><circle cx="154" cy="242" r="9.1666666666667" fill="#222" fill-opacity="0.046" /><circle cx="198" cy="242" r="18.333333333333" fill="none" stroke="#222" style="opacity:0.15;stroke-width:7.3333333333333px;" /><circle cx="198" cy="242" r="9.1666666666667" fill="#222" fill-opacity="0.028666666666667" /><circle cx="242" cy="242" r="18.333333333333" fill="none" stroke="#ddd" style="opacity:0.10666666666667;stroke-width:7.3333333333333px;" /><circle cx="242" cy="242" r="9.1666666666667" fill="#222" fill-opacity="0.13266666666667" /></svg>